<?xml version="1.0" encoding="UTF-8"?><svg xmlns="http://www.w3.org/2000/svg" xmlns:xlink="http://www.w3.org/1999/xlink" viewBox="0 0 1024 1024"><defs><clipPath id="uuid-30341ca2-0d28-4145-87eb-c9d118d5acc0"><rect x="0" y="0" width="1024" height="1024" style="fill:none;"/></clipPath></defs><g id="uuid-b6df2c79-22ba-4d4e-9dee-26065b0d8625"><g id="uuid-5434ad30-e66d-421b-bc90-aa3b0deea292"><g style="clip-path:url(#uuid-30341ca2-0d28-4145-87eb-c9d118d5acc0);"><rect x="345.1068" y="602.1792" width="633.7003" height="364.834" style="fill:#fff;"/><path d="M494.3855,835.4473h60.8953l-29.9561-99.5392-30.9392,99.5392ZM495.5412,645.4139h58.5959l115.6469,291.1497h-80.6908l-14.2096-42.099h-101.052l-15.3733,42.099h-79.9163l116.9992-291.1497ZM869.8295,754.7927v-109.3788h74.3665v291.1497h-74.3665v-116.4575h-95.2053v116.4575h-74.3625v-291.1497h74.3625v109.3788h95.2053ZM0,1024h1024V0H0v1024Z" style="fill:#36398a;"/></g></g></g><g id="uuid-2a4b2e31-372b-4180-94c8-05faa9103dd9"><rect x="63.8047" y="77.0765" width="879.9245" height="427.354" style="fill:none;"/><path d="M233.7534,142.2632c0,9.5161-1.7642,18.9248-5.2891,28.2285-3.5264,9.3027-8.5601,16.8022-15.1016,22.4932-7.7319,6.7983-15.9102,11.2783-24.5322,13.4453-8.6245,2.166-19.2241,3.2495-31.7969,3.2495h-21.4102v60.5347h-47.2808V77.0132h63.2109c8.0708,0,15.4839.2988,22.2388.8921,6.7539.5952,13.4648,1.9556,20.1357,4.0781,6.6685,2.1245,12.3813,5.1831,17.1406,9.1758,7.3916,6.2026,13.019,13.7637,16.8857,22.6846,3.8652,8.9209,5.7988,18.3955,5.7988,28.4194ZM186.4727,143.1553c0-9.0903-2.9312-15.1655-8.7935-18.2241s-13.8076-4.5879-23.8315-4.5879h-18.2241v46.0063h20.1357c9.6001,0,17.1191-1.6128,22.5571-4.8428,5.436-3.228,8.1562-9.3452,8.1562-18.3516Z" style="fill:#fff;"/><path d="M416.2495,270.2144h-49.3198v-77.2295h-63.2109v77.2295h-49.3198V77.0132h49.3198v72.6416h63.2109v-72.6416h49.3198v193.2012Z" style="fill:#fff;"/><path d="M596.5791,142.2632c0,9.5161-1.7646,18.9248-5.2891,28.2285-3.5264,9.3027-8.5605,16.8022-15.1016,22.4932-7.7324,6.7983-15.9102,11.2783-24.5322,13.4453-8.624,2.166-19.2236,3.2495-31.7969,3.2495h-21.4102v60.5347h-47.2808V77.0132h63.2104c8.0713,0,15.4844.2988,22.2393.8921,6.7539.5952,13.4648,1.9556,20.1357,4.0781,6.6689,2.1245,12.3818,5.1831,17.1406,9.1758,7.3916,6.2026,13.0186,13.7637,16.8857,22.6846,3.8652,8.9209,5.7988,18.3955,5.7988,28.4194ZM549.2988,143.1553c0-9.0903-2.9316-15.1655-8.7939-18.2241s-13.8076-4.5879-23.8311-4.5879h-18.2246v46.0063h20.1357c9.5996,0,17.1191-1.6128,22.5576-4.8428,5.4355-3.228,8.1562-9.3452,8.1562-18.3516Z" style="fill:#fff;"/><path d="M611.2354,270.2144h-45.2422v-44.3496h45.2422v44.3496Z" style="fill:#fff;"/><path d="M688.4658,110.0205h-43.3301v-33.0073h43.3301v33.0073ZM688.4658,270.2144h-43.3301V125.3135h43.3301v144.9009Z" style="fill:#fff;"/><path d="M854.0117,270.2144h-43.3301v-79.1411c0-9.5142-1.5508-16.8862-4.6514-22.1108-3.1025-5.2256-9.1562-7.8379-18.1611-7.8379-9.3467,0-15.8027,2.6123-19.3711,7.8379-3.5684,5.2246-5.3516,12.7241-5.3516,22.4932v78.7588h-43.3301V125.3135h40.3984v15.4204h.5098c3.0586-5.0122,6.5-8.9844,10.3223-11.916,3.8242-2.9307,8.1982-5.0757,13.127-6.4355,4.9268-1.3579,10.2793-2.0391,16.0576-2.0391,6.2861,0,12.9131,1.147,19.8809,3.4409,6.9658,2.2939,12.6582,5.3525,17.0771,9.1758,11.2148,9.2612,16.8223,24.8091,16.8223,46.6436v90.6108Z" style="fill:#fff;"/><path d="M928.0557,110.0205h-43.3301v-33.0073h43.3301v33.0073ZM928.0557,270.2144h-43.3301V125.3135h43.3301v144.9009Z" style="fill:#fff;"/><path d="M236.3638,426.2144h-20.395v-118.125h-.5537l-47.0654,118.125h-12.2739l-47.25-118.125h-.3691v118.125h-20.395v-139.9043h32.1152l41.8975,107.2354,42.1743-107.2354h32.1152v139.9043Z" style="fill:#fff;"/><path d="M368.7007,426.2144h-19.6567v-16.2422h-.3691c-3.6309,6.2148-8.5981,10.9214-14.9038,14.1196-6.3071,3.1982-13.1826,4.7988-20.626,4.7988-7.6914,0-14.9355-1.3696-21.7334-4.1069-6.7983-2.7368-12.7207-6.5518-17.7646-11.4434-5.0454-4.8906-8.9834-10.7192-11.8125-17.4878-2.8306-6.7671-4.2451-13.9653-4.2451-21.5947,0-7.9365,1.3989-15.2876,4.1992-22.0562,2.7988-6.7671,6.6904-12.6431,11.6738-17.6265s10.9043-8.874,17.7646-11.6743c6.8599-2.7988,14.166-4.1987,21.918-4.1987,4.5522,0,9.1045.646,13.6582,1.938,4.5522,1.292,8.7051,3.2617,12.4585,5.9062,3.752,2.646,6.8896,5.876,9.4131,9.6899h.3691v-14.7656h19.6567v104.7437ZM349.4131,374.0732c0-5.2285-.8623-10.1196-2.584-14.6733-1.7231-4.5522-4.1987-8.5508-7.4292-11.9971-3.2295-3.4448-7.0913-6.1055-11.5815-7.9824-4.4917-1.8765-9.3828-2.8149-14.6733-2.8149-6.8291,0-12.9658,1.6929-18.4111,5.0757-5.4443,3.3843-9.7212,7.9521-12.8271,13.7041-3.1074,5.7534-4.6606,11.9829-4.6606,18.688,0,6.3994,1.5835,12.4585,4.7524,18.1802,3.1685,5.7217,7.5059,10.2593,13.0127,13.6123,5.5054,3.3535,11.4893,5.0293,17.9492,5.0293,6.6445,0,12.7656-1.6611,18.3647-4.9834,5.5977-3.3223,10.0132-7.7979,13.2427-13.4277,3.2305-5.6289,4.8452-11.7661,4.8452-18.4106Z" style="fill:#fff;"/><path d="M486.8257,426.2144h-19.6567v-56.8477c0-10.0894-1.938-18.0723-5.814-23.9482-3.876-5.8745-10.6445-8.813-20.3027-8.813-9.168,0-16.0576,3.0771-20.6719,9.2285-4.6143,6.1528-6.9214,13.9351-6.9214,23.3481v57.0322h-19.6567v-104.7437h18.3647v11.1665h.3691c3.6914-4.8594,8.1514-8.3979,13.3813-10.6128,5.2285-2.2148,10.9819-3.3223,17.2573-3.3223,5.0439,0,9.8745.6616,14.4888,1.9839,4.6143,1.3237,8.8594,3.3843,12.7354,6.1836,3.876,2.7998,7.1362,6.291,9.7822,10.4741,4.4297,6.9531,6.6445,15.9048,6.6445,26.855v62.0156Z" style="fill:#fff;"/><path d="M617.5938,426.2144h-19.6572v-16.2422h-.3691c-3.6299,6.2148-8.5977,10.9214-14.9033,14.1196-6.3076,3.1982-13.1826,4.7988-20.626,4.7988-7.6914,0-14.9355-1.3696-21.7334-4.1069-6.7988-2.7368-12.7207-6.5518-17.7646-11.4434-5.0449-4.8906-8.9834-10.7192-11.8125-17.4878-2.8306-6.7671-4.2451-13.9653-4.2451-21.5947,0-7.9365,1.3989-15.2876,4.1992-22.0562,2.7988-6.7671,6.6904-12.6431,11.6738-17.6265s10.9043-8.874,17.7646-11.6743c6.8594-2.7988,14.166-4.1987,21.918-4.1987,4.5527,0,9.1045.646,13.6582,1.938,4.5527,1.292,8.7051,3.2617,12.459,5.9062,3.752,2.646,6.8896,5.876,9.4121,9.6899h.3691v-14.7656h19.6572v104.7437ZM598.3057,374.0732c0-5.2285-.8613-10.1196-2.584-14.6733-1.7227-4.5522-4.1982-8.5508-7.4287-11.9971-3.2295-3.4448-7.0908-6.1055-11.5811-7.9824-4.4922-1.8765-9.3828-2.8149-14.6738-2.8149-6.8291,0-12.9658,1.6929-18.4111,5.0757-5.4443,3.3843-9.7217,7.9521-12.8271,13.7041-3.1074,5.7534-4.6602,11.9829-4.6602,18.688,0,6.3994,1.583,12.4585,4.752,18.1802,3.168,5.7217,7.5059,10.2593,13.0127,13.6123,5.5049,3.3535,11.4893,5.0293,17.9492,5.0293,6.6445,0,12.7656-1.6611,18.3643-4.9834s10.0137-7.7979,13.2432-13.4277c3.2305-5.6289,4.8447-11.7661,4.8447-18.4106Z" style="fill:#fff;"/><path d="M749.4688,412.0024c0,11.6279-2.293,21.6094-6.875,29.9463-4.584,8.3364-11.1367,14.6577-19.6572,18.9648-8.5215,4.3057-18.5645,6.46-30.1309,6.46-7.6914,0-14.874-1.292-21.5488-3.876-6.6758-2.584-12.6123-6.3677-17.8105-11.3511-5.2002-4.9834-9.2744-10.9214-12.2275-17.811h21.8711c2.3379,3.3223,5.0137,6.1055,8.0293,8.3516,3.0137,2.2456,6.3672,3.937,10.0586,5.0762,3.6914,1.1377,7.6279,1.707,11.8125,1.707,11.9971,0,21.1328-3.1694,27.4082-9.5054,6.2754-6.3374,9.4141-15.5342,9.4141-27.5933h-.3691c-4,5.5371-9.2148,9.6753-15.6426,12.4121-6.4297,2.7373-13.2432,4.1069-20.4414,4.1069-9.7822,0-18.9961-2.5073-27.6396-7.521-8.6445-5.0142-15.5195-11.7969-20.626-20.3491-5.1064-8.5508-7.6592-17.7188-7.6592-27.501,0-8.2437,1.876-16.0576,5.6299-23.4404,4.9209-10.0894,11.7959-17.8413,20.625-23.2559,8.8281-5.4131,18.8408-8.1211,30.0391-8.1211,4.3057,0,8.6748.5537,13.1045,1.6611s8.6592,2.7842,12.6895,5.0298c4.0283,2.2461,7.459,4.9688,10.29,8.167v-12.0894h19.6562v90.5317ZM729.8125,374.0732c0-8.2437-1.9385-15.3799-5.8145-21.4102-3.876-6.0288-9.4746-10.4282-16.7959-13.1968-5.1074-1.9062-9.7217-2.8608-13.8428-2.8608-6.7061,0-12.8135,1.6929-18.3184,5.0757-5.5068,3.3843-9.875,7.9365-13.1045,13.6582-3.2305,5.7217-4.8447,11.9048-4.8447,18.5493,0,6.584,1.5986,12.689,4.7988,18.3188,3.1982,5.6289,7.6133,10.1514,13.2422,13.5654,5.6299,3.415,11.6426,5.1221,18.042,5.1221,5.0439,0,9.7041-.877,13.9814-2.6299,4.2754-1.7539,8.043-4.3062,11.3047-7.6602,3.2607-3.3525,5.9062-7.3667,7.9365-12.043,2.2754-4.8594,3.415-9.6899,3.415-14.4888Z" style="fill:#fff;"/><path d="M876.2695,372.5044c0,3.3223-.1855,6.6143-.5547,9.8745h-86.748c1.293,5.292,3.5684,10.1367,6.8301,14.5347,3.2598,4.3994,7.29,7.8301,12.0889,10.29,4.7988,2.4614,9.9668,3.6914,15.5039,3.6914,6.2139,0,12.0576-1.5991,17.5342-4.7988,5.4756-3.1982,9.5664-7.4434,12.2734-12.7354h19.6572c-4.0605,10.8291-10.6289,19.4575-19.7031,25.8857-9.0752,6.4297-19.2725,9.644-30.5928,9.644-7.1973,0-14.0586-1.4619-20.5791-4.3833-6.5215-2.9219-12.2432-6.998-17.165-12.228-4.9229-5.2285-8.7363-11.1665-11.4434-17.811-2.708-6.6445-4.0605-13.5659-4.0605-20.7642,0-7.3208,1.3379-14.3501,4.0146-21.0874,2.6758-6.7363,6.4902-12.6733,11.4434-17.8105,4.9512-5.1367,10.7051-9.105,17.2568-11.9053,6.5527-2.7988,13.5508-4.1987,20.9951-4.1987,7.3828,0,14.3037,1.3999,20.7646,4.1987,6.459,2.8003,12.1191,6.6909,16.9805,11.6743,4.8594,4.9834,8.6582,10.7515,11.3965,17.3032,2.7373,6.5527,4.1074,13.4277,4.1074,20.626ZM856.6123,367.2441c-.3691-5.5977-2.1689-10.7515-5.3984-15.4575-3.2305-4.707-7.3828-8.4126-12.459-11.1206-5.0752-2.7065-10.4131-4.0605-16.0107-4.0605s-10.9365,1.3696-16.0117,4.1069c-5.0762,2.7378-9.2139,6.4453-12.4121,11.1201-3.2002,4.6763-4.9844,9.814-5.3535,15.4116h67.6455Z" style="fill:#fff;"/><path d="M941.3301,338.9126c-2.3379,0-4.7988.3545-7.3828,1.0615-2.584.7075-4.8604,1.6147-6.8281,2.7222-4.123,2.0923-7.0762,5.5527-8.8594,10.3823-1.7852,4.8301-2.6768,10.105-2.6768,15.8267v57.3091h-19.6572v-104.7437h18.3652v9.5054h.3691c3.0137-4.1831,6.7832-7.2285,11.3047-9.1362,4.5225-1.9062,9.6445-2.9531,15.3652-3.1377v20.2104Z" style="fill:#fff;"/></g></svg>